<?xml version="1.0" encoding="UTF-8" standalone="no"?>
<svg
   xmlns:dc="http://purl.org/dc/elements/1.1/"
   xmlns:cc="http://creativecommons.org/ns#"
   xmlns:rdf="http://www.w3.org/1999/02/22-rdf-syntax-ns#"
   xmlns:svg="http://www.w3.org/2000/svg"
   xmlns="http://www.w3.org/2000/svg"
   xmlns:sodipodi="http://sodipodi.sourceforge.net/DTD/sodipodi-0.dtd"
   xmlns:inkscape="http://www.inkscape.org/namespaces/inkscape"
   width="900"
   height="600"
   id="svg2"
   version="1.1"
   inkscape:version="0.91 r13725"
   sodipodi:docname="Flag_of_the_Turkic_Council.svg">
  <metadata
     id="metadata20">
    <rdf:RDF>
      <cc:Work
         rdf:about="">
        <dc:format>image/svg+xml</dc:format>
        <dc:type
           rdf:resource="http://purl.org/dc/dcmitype/StillImage" />
        <dc:title />
      </cc:Work>
    </rdf:RDF>
  </metadata>
  <defs
     id="defs18">
    <path
       d="M 0,-35.599 C 0,-35.599 4.7531,-39.5834 6.3671,-37.5849 8.9632,-34.3705 -1.6149,-18.3599 -1.6149,-12.7219 -1.6149,-3.4669 4.5753,-0.9499 12.2191,0.3711 17.3481,1.2582 25.7001,1e-4 25.7001,1e-4 24.1276,-2.1078 23.1048,-2.7289 20.4551,-2.8974 23.405,-4.4252 26.4089,-7.7415 26.4089,-12.9044 26.4089,-20.8661 23.1234,-24.1474 23.1234,-33.1234 23.1234,-38.1026 27.2163,-44.4414 27.2163,-44.4414 19.982,-43.71912 16.3963,-37.0367 18.4364,-31.6964 17.2848,-31.53092 16.2392,-31.78951 15.3412,-32.63841 14.81175,-31.15811 15.64755,-29.43991 16.7672,-27.95961 15.86547,-27.47893 15.2032,-27.76719 13.7672,-28.06293 13.90338,-26.53773 14.8195,-24.91743 17.0608,-23.39233 10.5567,-25.07683 6.5548,-20.55473 6.5548,-15.82083 6.5548,-12.24503 9.0667,-9.68223 11.5219,-9.68223 12.31537,-9.68223 13.4809,-10.00823 14.1385,-10.49783 14.60202,-9.51369 14.36317,-8.19653 13.88568,-7.21233 15.68528,-7.68687 16.82748,-8.75303 16.01438,-10.97223 17.39658,-11.0989 18.49608,-11.5648 19.24408,-12.45253 18.48627,-13.42067 17.33668,-13.97833 16.01438,-13.93283 17.02078,-16.00463 15.89923,-17.16453 14.26498,-18.10463 14.26498,-18.10463 15.30428,-13.93293 12.65008,-13.93293 11.45658,-13.93293 10.36908,-14.32051 10.36908,-16.07513 10.36908,-17.60303 11.70808,-19.71953 14.80318,-19.58493 17.89838,-19.45036 20.40768,-17.45603 20.40768,-12.52723 20.40768,-7.98043 16.73148,-5.71913 11.88718,-5.57303 7.51838,-5.43846 4.22098,-7.79933 4.22098,-12.29493 4.22098,-18.27843 12.87978,-31.91693 12.87978,-37.24893 12.87978,-41.24953 9.27338,-43.48263 5.74468,-43.48263 1.16918,-43.48263 -2.69122,-38.96293 -2.69122,-38.96293 L -0.00322,-35.60093 z"
       id="uorn"
       inkscape:connector-curvature="0" />
    <path
       d="M -1,15 C -1,5 8,-0.14 15.072,-0.14 24.6,-0.14 29.673,5.543 29.673,12.982 29.673,17.1989 28.89847,19.845 26.9493,23.881 26.9493,23.881 11.2323,56.487 5.1133,69.098 4.35021,70.6709 4.104,72.4614 4.104,75.0865 4.104,79.1404 8.0456,82.4538 12.1784,82.5553 15.9459,82.6493 20.0509,79.0514 20.0509,74.952 20.0509,69.9724 17.4615,67.7524 14.8026,67.7524 11.5308,67.7524 10.2271,69.0942 10.2271,71.3859 10.2271,72.9827 11.00018,73.6736 12.1111,73.6736 14.9174,73.6736 14.1297,69.9056 14.1297,69.9056 15.5235,70.21 16.6685,71.6306 16.0137,73.4045 17.0333,73.63097 17.9884,74.1649 18.7388,75.0194 17.98652,75.74696 17.1236,76.3086 16.0137,76.4997 16.67092,78.6641 15.7927,79.7217 13.8942,80.1668 14.27731,79.3342 14.29049,78.5683 14.16334,77.8454 11.17444,78.69328 6.59364,77.344 6.59364,72.1934 6.59364,67.0796 10.15124,62.7738 16.82164,63.8499 15.23474,63.09303 14.42764,61.5444 14.26474,59.8127 15.47594,60.2837 16.82164,60.35099 16.82164,60.35099 16.04175,58.97909 14.95854,57.79659 15.00494,55.10269 16.24164,55.66355 17.39004,56.70209 18.97484,56.0447 16.48754,51.1621 19.54343,44.4457 27.31834,42.8567 24.47284,46.184 23.07934,49.7768 23.07934,53.3537 23.07934,64.9457 26.30904,66.8937 26.30904,74.9527 26.30904,78.3244 24.57154,81.9657 21.12804,84.4401 V 84.30553 C 23.40404,84.91353 24.86204,86.03153 25.70004,87.55053 20.50004,89.02153 12.94104,88.99453 8.88204,87.40153 4.21644,86.86253 0.95994,83.29153 2.4e-4,81.47953 -0.95948,79.66853 -2.82346,73.11553 2.4e-4,67.21553 3.09054,60.75853 17.66124,29.93853 22.20424,20.24953 23.16784,18.19453 23.75184,16.01523 23.75184,13.65543 23.75184,7.72053 18.30164,5.64833 15.20644,5.64833 11.50574,5.64833 7.73764,8.46083 7.73764,11.97323 7.73764,14.19883 8.94884,15.53943 10.69824,15.53943 14.88154,15.53943 14.62744,11.98943 13.79344,9.75283 16.39694,10.92043 17.91024,13.00483 17.49414,15.20303 18.96814,15.40443 20.37114,16.10191 21.66584,17.55803 20.64714,18.84123 19.40464,19.81123 17.49414,19.84573 18.32858,23.25573 16.03984,24.69793 13.79344,25.49773 14.50412,22.99503 14.97064,20.11483 10.69824,20.11483 7.58324,20.11483 5.13034,19.57654 3.70044,17.55793 3.616332,20.24933 3.36401,30.88093 3.36401,30.88093 3.18458,34.87593 8.72451,34.76173 12.24581,33.57233 10.91691,38.17413 8.19151,40.66213 1.88381,40.03183 3.41461,40.67105 5.04631,42.10803 5.04631,44.87643 5.04531,48.62243 1.99881,52.77243 -0.00119,53.99943 L -1.00119,14.99943 z"
       id="orn"
       inkscape:connector-curvature="0" />
    <path
       d="M 0,-76.45 C 4,-76.5 5.5,-79 5.5,-82 5.5,-86 0,-105.05 0,-105.05 0,-105.05 -5.5,-86 -5.5,-82 -5.5,-79 -4,-76.45 0,-76.45 z"
       id="be"
       inkscape:connector-curvature="0" />
    <clipPath
       id="clipPath2448">
      <circle
         sodipodi:ry="46"
         sodipodi:rx="46"
         sodipodi:cy="-39"
         sodipodi:cx="0"
         cx="0"
         cy="-39"
         r="46"
         id="circle2398" />
    </clipPath>
    <clipPath
       id="clip">
      <circle
         sodipodi:ry="46"
         sodipodi:rx="46"
         sodipodi:cy="-39"
         sodipodi:cx="0"
         cx="0"
         cy="-39"
         r="46"
         id="circle8" />
    </clipPath>
  </defs>
  <sodipodi:namedview
     pagecolor="#ffffff"
     bordercolor="#666666"
     borderopacity="1"
     objecttolerance="10"
     gridtolerance="10"
     guidetolerance="10"
     inkscape:pageopacity="0"
     inkscape:pageshadow="2"
     inkscape:window-width="1024"
     inkscape:window-height="705"
     id="namedview16"
     showgrid="false"
     inkscape:zoom="0.4"
     inkscape:cx="398.55723"
     inkscape:cy="339.29405"
     inkscape:window-x="-8"
     inkscape:window-y="-8"
     inkscape:window-maximized="1"
     inkscape:current-layer="layer3"
     inkscape:snap-page="false"
     inkscape:snap-bbox="false"
     inkscape:object-nodes="false"
     showguides="true"
     inkscape:guide-bbox="true"
     inkscape:snap-nodes="false" />
  <g
     inkscape:groupmode="layer"
     id="layer3"
     inkscape:label="Flag">
    <g
       id="g4243">
      <path
         id="rect3471"
         d="M 0,0 0,600 900,600 900,0 0,0 Z"
         style="fill:#00b5e2;fill-opacity:1;fill-rule:evenodd;stroke:none"
         inkscape:connector-curvature="0" />
      <g
         style="fill:#ffffff"
         transform="translate(1849.3201,-0.60523)"
         id="g3639">
        <g
           style="fill:#ffffff;fill-opacity:1"
           id="g2479"
           transform="matrix(2,0,0,2,-1399.3201,300.60523)">
          <path
             id="path2482"
             d="M 4.2,-54 C 0,-65 9,-82 0,-90 c 3,12 -7,25 -4.2,36 2.8,11 12.6,11 8.4,0 z"
             style="fill:#ffffff;fill-opacity:1"
             inkscape:connector-curvature="0" />
          <path
             id="path2484"
             d="m 12.595754,-52.678143 c -2.427511,-11.521596 9.12107,-26.904387 1.483351,-36.213804 1.085851,12.321563 -10.8246806,23.597166 -9.7799329,34.899754 1.0447478,11.302588 10.7240929,12.835646 8.2965819,1.31405 z"
             style="fill:#ffffff;fill-opacity:1"
             inkscape:connector-curvature="0" />
          <path
             id="path2486"
             d="m 20.681355,-50.05918 c -0.59525,-11.759492 13.217547,-25.1463 7.130175,-35.535905 -0.855035,12.339729 -14.38282,21.613293 -15.119049,32.940163 -0.736229,11.326869 8.584125,14.355235 7.988874,2.595742 z"
             style="fill:#ffffff;fill-opacity:1"
             inkscape:connector-curvature="0" />
          <path
             id="path2488"
             d="m 28.257714,-46.207591 c 1.251669,-11.707832 16.988566,-22.769028 12.601431,-33.982994 -2.774866,12.054049 -17.586808,19.097229 -20.085885,30.169474 -2.499078,11.072245 6.232786,15.521352 7.484454,3.81352 z"
             style="fill:#ffffff;fill-opacity:1"
             inkscape:connector-curvature="0" />
          <path
             id="path2490"
             d="m 35.138278,-41.21822 c 3.067766,-11.367885 20.34127,-19.831106 17.762399,-31.59331 -4.626373,11.47156 -20.357752,16.110928 -24.558142,26.655914 -4.200391,10.544986 3.727976,16.305282 6.795743,4.937396 z"
             style="fill:#ffffff;fill-opacity:1"
             inkscape:connector-curvature="0" />
          <path
             id="path2492"
             d="m 41.153616,-35.213919 c 4.808326,-10.748023 23.193103,-16.404877 22.485996,-28.425693 -6.363961,10.606602 -22.627418,12.727922 -28.425693,22.485996 -5.798276,9.758074 1.131371,16.687721 5.939697,5.939697 z"
             style="fill:#ffffff;fill-opacity:1"
             inkscape:connector-curvature="0" />
          <path
             id="path2494"
             d="m 46.155616,-28.342535 c 6.430489,-9.863509 25.473846,-12.574707 26.655914,-24.558142 -7.944848,9.480475 -24.339922,9.031514 -31.59331,17.762399 -7.253388,8.730886 -1.493092,16.659253 4.937396,6.795743 z"
             style="fill:#ffffff;fill-opacity:1"
             inkscape:connector-curvature="0" />
          <path
             id="path2497"
             d="m 50.021111,-20.77326 c 7.894312,-8.736123 27.127337,-8.434903 30.169474,-20.085885 -9.330107,8.120906 -25.453096,5.112717 -33.982994,12.601431 -8.529898,7.488713 -4.080791,16.220577 3.81352,7.484454 z"
             style="fill:#ffffff;fill-opacity:1"
             inkscape:connector-curvature="0" />
          <path
             id="path2499"
             d="m 52.654922,-12.692481 c 9.16375,-7.393624 28.112864,-4.087404 32.940163,-15.119049 -10.485627,6.561374 -25.939532,1.068029 -35.535905,7.130175 -9.596374,6.062145 -6.568008,15.3824986 2.595742,7.988874 z"
             style="fill:#ffffff;fill-opacity:1"
             inkscape:connector-curvature="0" />
          <path
             id="path2501"
             d="m 53.992193,-4.2991721 c 10.207546,-5.8690709 28.406158,0.3607378 34.899754,-9.7799329 -11.382956,4.8402789 -25.787249,-3.002956 -36.213804,1.483351 -10.426554,4.4863069 -8.893496,14.1656522 1.31405,8.2965819 z"
             style="fill:#ffffff;fill-opacity:1"
             inkscape:connector-curvature="0" />
        </g>
        <g
           transform="matrix(0,2,-2,0,-1399.3201,300.60523)"
           id="g2503"
           style="fill:#ffffff;fill-opacity:1">
          <path
             id="path2505"
             d="M 4.2,-54 C 0,-65 9,-82 0,-90 c 3,12 -7,25 -4.2,36 2.8,11 12.6,11 8.4,0 z"
             style="fill:#ffffff;fill-opacity:1"
             inkscape:connector-curvature="0" />
          <path
             id="path2507"
             d="m 12.595754,-52.678143 c -2.427511,-11.521596 9.12107,-26.904387 1.483351,-36.213804 1.085851,12.321563 -10.8246806,23.597166 -9.7799329,34.899754 1.0447478,11.302588 10.7240929,12.835646 8.2965819,1.31405 z"
             style="fill:#ffffff;fill-opacity:1"
             inkscape:connector-curvature="0" />
          <path
             id="path2509"
             d="m 20.681355,-50.05918 c -0.59525,-11.759492 13.217547,-25.1463 7.130175,-35.535905 -0.855035,12.339729 -14.38282,21.613293 -15.119049,32.940163 -0.736229,11.326869 8.584125,14.355235 7.988874,2.595742 z"
             style="fill:#ffffff;fill-opacity:1"
             inkscape:connector-curvature="0" />
          <path
             id="path2511"
             d="m 28.257714,-46.207591 c 1.251669,-11.707832 16.988566,-22.769028 12.601431,-33.982994 -2.774866,12.054049 -17.586808,19.097229 -20.085885,30.169474 -2.499078,11.072245 6.232786,15.521352 7.484454,3.81352 z"
             style="fill:#ffffff;fill-opacity:1"
             inkscape:connector-curvature="0" />
          <path
             id="path2513"
             d="m 35.138278,-41.21822 c 3.067766,-11.367885 20.34127,-19.831106 17.762399,-31.59331 -4.626373,11.47156 -20.357752,16.110928 -24.558142,26.655914 -4.200391,10.544986 3.727976,16.305282 6.795743,4.937396 z"
             style="fill:#ffffff;fill-opacity:1"
             inkscape:connector-curvature="0" />
          <path
             id="path2515"
             d="m 41.153616,-35.213919 c 4.808326,-10.748023 23.193103,-16.404877 22.485996,-28.425693 -6.363961,10.606602 -22.627418,12.727922 -28.425693,22.485996 -5.798276,9.758074 1.131371,16.687721 5.939697,5.939697 z"
             style="fill:#ffffff;fill-opacity:1"
             inkscape:connector-curvature="0" />
          <path
             id="path2517"
             d="m 46.155616,-28.342535 c 6.430489,-9.863509 25.473846,-12.574707 26.655914,-24.558142 -7.944848,9.480475 -24.339922,9.031514 -31.59331,17.762399 -7.253388,8.730886 -1.493092,16.659253 4.937396,6.795743 z"
             style="fill:#ffffff;fill-opacity:1"
             inkscape:connector-curvature="0" />
          <path
             id="path2519"
             d="m 50.021111,-20.77326 c 7.894312,-8.736123 27.127337,-8.434903 30.169474,-20.085885 -9.330107,8.120906 -25.453096,5.112717 -33.982994,12.601431 -8.529898,7.488713 -4.080791,16.220577 3.81352,7.484454 z"
             style="fill:#ffffff;fill-opacity:1"
             inkscape:connector-curvature="0" />
          <path
             id="path2521"
             d="m 52.654922,-12.692481 c 9.16375,-7.393624 28.112864,-4.087404 32.940163,-15.119049 -10.485627,6.561374 -25.939532,1.068029 -35.535905,7.130175 -9.596374,6.062145 -6.568008,15.3824986 2.595742,7.988874 z"
             style="fill:#ffffff;fill-opacity:1"
             inkscape:connector-curvature="0" />
          <path
             id="path2523"
             d="m 53.992193,-4.2991721 c 10.207546,-5.8690709 28.406158,0.3607378 34.899754,-9.7799329 -11.382956,4.8402789 -25.787249,-3.002956 -36.213804,1.483351 -10.426554,4.4863069 -8.893496,14.1656522 1.31405,8.2965819 z"
             style="fill:#ffffff;fill-opacity:1"
             inkscape:connector-curvature="0" />
        </g>
        <g
           transform="matrix(-2,0,0,-2,-1399.3201,300.60523)"
           id="g2525"
           style="fill:#ffffff;fill-opacity:1">
          <path
             id="path2527"
             d="M 4.2,-54 C 0,-65 9,-82 0,-90 c 3,12 -7,25 -4.2,36 2.8,11 12.6,11 8.4,0 z"
             style="fill:#ffffff;fill-opacity:1"
             inkscape:connector-curvature="0" />
          <path
             id="path2529"
             d="m 12.595754,-52.678143 c -2.427511,-11.521596 9.12107,-26.904387 1.483351,-36.213804 1.085851,12.321563 -10.8246806,23.597166 -9.7799329,34.899754 1.0447478,11.302588 10.7240929,12.835646 8.2965819,1.31405 z"
             style="fill:#ffffff;fill-opacity:1"
             inkscape:connector-curvature="0" />
          <path
             id="path2531"
             d="m 20.681355,-50.05918 c -0.59525,-11.759492 13.217547,-25.1463 7.130175,-35.535905 -0.855035,12.339729 -14.38282,21.613293 -15.119049,32.940163 -0.736229,11.326869 8.584125,14.355235 7.988874,2.595742 z"
             style="fill:#ffffff;fill-opacity:1"
             inkscape:connector-curvature="0" />
          <path
             id="path2533"
             d="m 28.257714,-46.207591 c 1.251669,-11.707832 16.988566,-22.769028 12.601431,-33.982994 -2.774866,12.054049 -17.586808,19.097229 -20.085885,30.169474 -2.499078,11.072245 6.232786,15.521352 7.484454,3.81352 z"
             style="fill:#ffffff;fill-opacity:1"
             inkscape:connector-curvature="0" />
          <path
             id="path2535"
             d="m 35.138278,-41.21822 c 3.067766,-11.367885 20.34127,-19.831106 17.762399,-31.59331 -4.626373,11.47156 -20.357752,16.110928 -24.558142,26.655914 -4.200391,10.544986 3.727976,16.305282 6.795743,4.937396 z"
             style="fill:#ffffff;fill-opacity:1"
             inkscape:connector-curvature="0" />
          <path
             id="path2537"
             d="m 41.153616,-35.213919 c 4.808326,-10.748023 23.193103,-16.404877 22.485996,-28.425693 -6.363961,10.606602 -22.627418,12.727922 -28.425693,22.485996 -5.798276,9.758074 1.131371,16.687721 5.939697,5.939697 z"
             style="fill:#ffffff;fill-opacity:1"
             inkscape:connector-curvature="0" />
          <path
             id="path2539"
             d="m 46.155616,-28.342535 c 6.430489,-9.863509 25.473846,-12.574707 26.655914,-24.558142 -7.944848,9.480475 -24.339922,9.031514 -31.59331,17.762399 -7.253388,8.730886 -1.493092,16.659253 4.937396,6.795743 z"
             style="fill:#ffffff;fill-opacity:1"
             inkscape:connector-curvature="0" />
          <path
             id="path2541"
             d="m 50.021111,-20.77326 c 7.894312,-8.736123 27.127337,-8.434903 30.169474,-20.085885 -9.330107,8.120906 -25.453096,5.112717 -33.982994,12.601431 -8.529898,7.488713 -4.080791,16.220577 3.81352,7.484454 z"
             style="fill:#ffffff;fill-opacity:1"
             inkscape:connector-curvature="0" />
          <path
             id="path2543"
             d="m 52.654922,-12.692481 c 9.16375,-7.393624 28.112864,-4.087404 32.940163,-15.119049 -10.485627,6.561374 -25.939532,1.068029 -35.535905,7.130175 -9.596374,6.062145 -6.568008,15.3824986 2.595742,7.988874 z"
             style="fill:#ffffff;fill-opacity:1"
             inkscape:connector-curvature="0" />
          <path
             id="path2545"
             d="m 53.992193,-4.2991721 c 10.207546,-5.8690709 28.406158,0.3607378 34.899754,-9.7799329 -11.382956,4.8402789 -25.787249,-3.002956 -36.213804,1.483351 -10.426554,4.4863069 -8.893496,14.1656522 1.31405,8.2965819 z"
             style="fill:#ffffff;fill-opacity:1"
             inkscape:connector-curvature="0" />
        </g>
        <g
           transform="matrix(0,-2,2,0,-1399.3201,300.60523)"
           id="g2547"
           style="fill:#ffffff;fill-opacity:1">
          <path
             id="path2549"
             d="M 4.2,-54 C 0,-65 9,-82 0,-90 c 3,12 -7,25 -4.2,36 2.8,11 12.6,11 8.4,0 z"
             style="fill:#ffffff;fill-opacity:1"
             inkscape:connector-curvature="0" />
          <path
             id="path2551"
             d="m 12.595754,-52.678143 c -2.427511,-11.521596 9.12107,-26.904387 1.483351,-36.213804 1.085851,12.321563 -10.8246806,23.597166 -9.7799329,34.899754 1.0447478,11.302588 10.7240929,12.835646 8.2965819,1.31405 z"
             style="fill:#ffffff;fill-opacity:1"
             inkscape:connector-curvature="0" />
          <path
             id="path2553"
             d="m 20.681355,-50.05918 c -0.59525,-11.759492 13.217547,-25.1463 7.130175,-35.535905 -0.855035,12.339729 -14.38282,21.613293 -15.119049,32.940163 -0.736229,11.326869 8.584125,14.355235 7.988874,2.595742 z"
             style="fill:#ffffff;fill-opacity:1"
             inkscape:connector-curvature="0" />
          <path
             id="path2555"
             d="m 28.257714,-46.207591 c 1.251669,-11.707832 16.988566,-22.769028 12.601431,-33.982994 -2.774866,12.054049 -17.586808,19.097229 -20.085885,30.169474 -2.499078,11.072245 6.232786,15.521352 7.484454,3.81352 z"
             style="fill:#ffffff;fill-opacity:1"
             inkscape:connector-curvature="0" />
          <path
             id="path2557"
             d="m 35.138278,-41.21822 c 3.067766,-11.367885 20.34127,-19.831106 17.762399,-31.59331 -4.626373,11.47156 -20.357752,16.110928 -24.558142,26.655914 -4.200391,10.544986 3.727976,16.305282 6.795743,4.937396 z"
             style="fill:#ffffff;fill-opacity:1"
             inkscape:connector-curvature="0" />
          <path
             id="path2559"
             d="m 41.153616,-35.213919 c 4.808326,-10.748023 23.193103,-16.404877 22.485996,-28.425693 -6.363961,10.606602 -22.627418,12.727922 -28.425693,22.485996 -5.798276,9.758074 1.131371,16.687721 5.939697,5.939697 z"
             style="fill:#ffffff;fill-opacity:1"
             inkscape:connector-curvature="0" />
          <path
             id="path2561"
             d="m 46.155616,-28.342535 c 6.430489,-9.863509 25.473846,-12.574707 26.655914,-24.558142 -7.944848,9.480475 -24.339922,9.031514 -31.59331,17.762399 -7.253388,8.730886 -1.493092,16.659253 4.937396,6.795743 z"
             style="fill:#ffffff;fill-opacity:1"
             inkscape:connector-curvature="0" />
          <path
             id="path2563"
             d="m 50.021111,-20.77326 c 7.894312,-8.736123 27.127337,-8.434903 30.169474,-20.085885 -9.330107,8.120906 -25.453096,5.112717 -33.982994,12.601431 -8.529898,7.488713 -4.080791,16.220577 3.81352,7.484454 z"
             style="fill:#ffffff;fill-opacity:1"
             inkscape:connector-curvature="0" />
          <path
             id="path2565"
             d="m 52.654922,-12.692481 c 9.16375,-7.393624 28.112864,-4.087404 32.940163,-15.119049 -10.485627,6.561374 -25.939532,1.068029 -35.535905,7.130175 -9.596374,6.062145 -6.568008,15.3824986 2.595742,7.988874 z"
             style="fill:#ffffff;fill-opacity:1"
             inkscape:connector-curvature="0" />
          <path
             id="path2567"
             d="m 53.992193,-4.2991721 c 10.207546,-5.8690709 28.406158,0.3607378 34.899754,-9.7799329 -11.382956,4.8402789 -25.787249,-3.002956 -36.213804,1.483351 -10.426554,4.4863069 -8.893496,14.1656522 1.31405,8.2965819 z"
             style="fill:#ffffff;fill-opacity:1"
             inkscape:connector-curvature="0" />
        </g>
        <circle
           style="fill:#ffffff"
           cy="0"
           cx="0"
           r="54"
           id="circle2569"
           transform="matrix(2,0,0,2,-1399.3201,300.60523)" />
        <circle
           style="fill:#ffffff;stroke:#ffffff;stroke-width:8;stroke-linecap:round;stroke-linejoin:round;stroke-miterlimit:4;stroke-dasharray:none;stroke-opacity:1"
           id="path2571"
           transform="matrix(2.7353722,0,0,2.7353722,-858.1929,-7.550916)"
           cx="-197.78358"
           cy="112.0634"
           r="38.825226" />
      </g>
      <circle
         id="circle10"
         r="111.68433"
         cy="298"
         cx="449.94888"
         style="fill:#00b5e2;fill-opacity:1" />
      <circle
         id="circle12"
         r="95.15361"
         cy="298"
         cx="474.05447"
         style="fill:#ffffff;fill-opacity:1" />
      <path
         id="path14"
         style="fill:#00b5e2;fill-opacity:1"
         d="m 516.86265,333.99174 -26.27963,-12.46934 -9.7269,27.41333 -9.76536,-27.39966 -26.26212,12.50619 12.46934,-26.27963 -27.41334,-9.7269 27.39967,-9.76536 -12.5062,-26.26212 26.27964,12.46934 9.7269,-27.41334 9.76536,27.39966 26.26211,-12.50619 -12.46933,26.27964 27.41334,9.72689 -27.39966,9.76536 z"
         inkscape:connector-curvature="0" />
    </g>
  </g>
</svg>
