<?xml version="1.0" encoding="UTF-8" standalone="no"?>
<svg
   xmlns:dc="http://purl.org/dc/elements/1.1/"
   xmlns:cc="http://creativecommons.org/ns#"
   xmlns:rdf="http://www.w3.org/1999/02/22-rdf-syntax-ns#"
   xmlns:svg="http://www.w3.org/2000/svg"
   xmlns="http://www.w3.org/2000/svg"
   xmlns:sodipodi="http://sodipodi.sourceforge.net/DTD/sodipodi-0.dtd"
   xmlns:inkscape="http://www.inkscape.org/namespaces/inkscape"
   width="600"
   height="400"
   id="svg2"
   version="1.1"
   inkscape:version="0.91 r13725"
   sodipodi:docname="new.svg">
  <metadata
     id="metadata22">
    <rdf:RDF>
      <cc:Work
         rdf:about="">
        <dc:format>image/svg+xml</dc:format>
        <dc:type
           rdf:resource="http://purl.org/dc/dcmitype/StillImage" />
      </cc:Work>
    </rdf:RDF>
  </metadata>
  <defs
     id="defs20">
    <clipPath
       clipPathUnits="userSpaceOnUse"
       id="clipPath376">
      <path
         d="m 478.355,723.944 101.154,0 0,101.154 -101.154,0 0,-101.154 z"
         id="path378"
         inkscape:connector-curvature="0" />
    </clipPath>
    <clipPath
       clipPathUnits="userSpaceOnUse"
       id="clipPath352">
      <path
         d="m 478.355,723.944 101.154,0 0,101.154 -101.154,0 0,-101.154 z"
         id="path354"
         inkscape:connector-curvature="0" />
    </clipPath>
    <clipPath
       clipPathUnits="userSpaceOnUse"
       id="clipPath332">
      <path
         d="m 478.355,723.944 101.154,0 0,101.154 -101.154,0 0,-101.154 z"
         id="path334"
         inkscape:connector-curvature="0" />
    </clipPath>
    <clipPath
       clipPathUnits="userSpaceOnUse"
       id="clipPath296">
      <path
         d="m 478.355,723.944 101.154,0 0,101.154 -101.154,0 0,-101.154 z"
         id="path298"
         inkscape:connector-curvature="0" />
    </clipPath>
    <clipPath
       clipPathUnits="userSpaceOnUse"
       id="clipPath276">
      <path
         d="m 478.355,723.944 101.154,0 0,101.154 -101.154,0 0,-101.154 z"
         id="path278"
         inkscape:connector-curvature="0" />
    </clipPath>
    <clipPath
       clipPathUnits="userSpaceOnUse"
       id="clipPath260">
      <path
         d="m 478.355,723.944 101.154,0 0,101.154 -101.154,0 0,-101.154 z"
         id="path262"
         inkscape:connector-curvature="0" />
    </clipPath>
    <clipPath
       clipPathUnits="userSpaceOnUse"
       id="clipPath224">
      <path
         d="m 478.355,723.944 101.154,0 0,101.154 -101.154,0 0,-101.154 z"
         id="path226"
         inkscape:connector-curvature="0" />
    </clipPath>
    <clipPath
       clipPathUnits="userSpaceOnUse"
       id="clipPath200">
      <path
         d="m 478.355,723.944 101.154,0 0,101.154 -101.154,0 0,-101.154 z"
         id="path202"
         inkscape:connector-curvature="0" />
    </clipPath>
    <clipPath
       clipPathUnits="userSpaceOnUse"
       id="clipPath176">
      <path
         d="m 478.355,723.944 101.154,0 0,101.154 -101.154,0 0,-101.154 z"
         id="path178"
         inkscape:connector-curvature="0" />
    </clipPath>
    <clipPath
       clipPathUnits="userSpaceOnUse"
       id="clipPath144">
      <path
         d="m 478.355,723.944 101.154,0 0,101.154 -101.154,0 0,-101.154 z"
         id="path146"
         inkscape:connector-curvature="0" />
    </clipPath>
    <clipPath
       clipPathUnits="userSpaceOnUse"
       id="clipPath116">
      <path
         d="m 478.355,723.944 101.154,0 0,101.154 -101.154,0 0,-101.154 z"
         id="path118"
         inkscape:connector-curvature="0" />
    </clipPath>
    <clipPath
       clipPathUnits="userSpaceOnUse"
       id="clipPath96">
      <path
         d="m 478.355,723.944 101.154,0 0,101.154 -101.154,0 0,-101.154 z"
         id="path98"
         inkscape:connector-curvature="0" />
    </clipPath>
    <clipPath
       clipPathUnits="userSpaceOnUse"
       id="clipPath80">
      <path
         d="m 478.355,723.944 101.154,0 0,101.154 -101.154,0 0,-101.154 z"
         id="path82"
         inkscape:connector-curvature="0" />
    </clipPath>
    <clipPath
       clipPathUnits="userSpaceOnUse"
       id="clipPath20">
      <path
         d="m 478.355,723.944 101.154,0 0,101.154 -101.154,0 0,-101.154 z"
         id="path22"
         inkscape:connector-curvature="0" />
    </clipPath>
  </defs>
  <sodipodi:namedview
     pagecolor="#ffffff"
     bordercolor="#666666"
     borderopacity="1"
     objecttolerance="10"
     gridtolerance="10"
     guidetolerance="10"
     inkscape:pageopacity="0"
     inkscape:pageshadow="2"
     inkscape:window-width="1600"
     inkscape:window-height="1135"
     id="namedview18"
     showgrid="false"
     inkscape:zoom="1.3953574"
     inkscape:cx="337.9078"
     inkscape:cy="177.85645"
     inkscape:window-x="1600"
     inkscape:window-y="0"
     inkscape:window-maximized="1"
     inkscape:current-layer="svg2" />
  <rect
     width="600"
     height="400"
     fill="#00247d"
     id="rect4"
     style="fill:#003c6e;fill-opacity:1;stroke:none" />
  <circle
     cx="300"
     cy="200"
     r="150"
     fill="#337321"
     id="circle6"
     style="fill:#007846;fill-opacity:1;stroke:none" />
  <g
     id="g10373"
     transform="matrix(2.9911526,0,0,2.9911526,735.20539,-225.31988)">
    <g
       style="fill:#ffdc14;fill-opacity:1"
       id="g348"
       transform="matrix(1.25,0,0,-1.25,-806.64744,1110.1522)">
      <g
         style="fill:#ffdc14;fill-opacity:1"
         clip-path="url(#clipPath352)"
         id="g350">
        <g
           style="fill:#ffdc14;fill-opacity:1"
           transform="translate(513.6865,775.7866)"
           id="g356">
          <path
             inkscape:connector-curvature="0"
             id="path358"
             style="fill:#ffdc14;fill-opacity:1;fill-rule:nonzero;stroke:none"
             d="M 0,0 C 1.924,-1.49 2.763,-2.724 2.763,-2.724 L 2.12,-4.4 l 1.776,0 c 0.837,-2.318 0.316,-3.2 0.316,-3.2 l -3.24,0 -8.118,-20.192 -3.498,0 L 0,0 Z" />
        </g>
        <g
           style="fill:#ffdc14;fill-opacity:1"
           transform="translate(515.5225,781.813)"
           id="g360">
          <path
             inkscape:connector-curvature="0"
             id="path362"
             style="fill:#ffdc14;fill-opacity:1;fill-rule:nonzero;stroke:none"
             d="m 0,0 c 0.631,1.503 2.892,6.975 2.892,6.975 l 4.189,0 15.286,-41.053 -3.153,-0.172 -8.182,20.619 -2.415,0 0.039,3.221 0.946,-0.017 L 4.871,1.948 3.323,-2.269 c 0,0 -1.607,1.606 -3.323,2.269" />
        </g>
        <g
           style="fill:#ffdc14;fill-opacity:1"
           transform="translate(525.6172,784.4019)"
           id="g364">
          <path
             inkscape:connector-curvature="0"
             id="path366"
             style="fill:#ffdc14;fill-opacity:1;fill-rule:nonzero;stroke:none"
             d="M 0,0 4.143,-11.635 4.104,5.667 11.351,5.654 c -0.208,2.729 0.11,3.893 0.11,3.893 C 11.438,9.566 0,9.467 0,9.467 L 0,0 Z" />
        </g>
      </g>
    </g>
    <g
       style="fill:#ffdc14;fill-opacity:1"
       transform="matrix(1.25,0,0,-1.25,-149.15968,151.60791)"
       id="g368">
      <path
         inkscape:connector-curvature="0"
         id="path370"
         style="fill:#ffdc14;fill-opacity:1;fill-rule:nonzero;stroke:none"
         d="m 0,0 -0.429,0.074 0,-14.647 5.936,0.008 L 0,0 Z" />
    </g>
    <g
       style="fill:#ffdc14;fill-opacity:1"
       id="g372"
       transform="matrix(1.25,0,0,-1.25,-806.64744,1110.1522)">
      <g
         style="fill:#ffdc14;fill-opacity:1"
         clip-path="url(#clipPath376)"
         id="g374">
        <g
           style="fill:#ffdc14;fill-opacity:1"
           transform="translate(542.1807,760.8345)"
           id="g380">
          <path
             inkscape:connector-curvature="0"
             id="path382"
             style="fill:#ffdc14;fill-opacity:1;fill-rule:nonzero;stroke:none"
             d="m 0,0 c 0,0 -3.942,2.663 -3.966,7.869 0.173,-0.087 -0.075,15.798 0.022,23.409 0.002,8.66 7.79,9.054 9.176,9.091 9.261,-0.037 10.124,-9.435 10.124,-9.435 L 11.438,30.865 C 10.354,36.88 5.623,36.289 5.623,36.289 1.283,36.289 0,33.627 0,29.386 -0.097,25.835 0,0 0,0" />
        </g>
        <g
           style="fill:#ffdc14;fill-opacity:1"
           transform="translate(543.4639,791.4038)"
           id="g384">
          <path
             inkscape:connector-curvature="0"
             id="path386"
             style="fill:#ffdc14;fill-opacity:1;fill-rule:nonzero;stroke:none"
             d="m 0,0 0,-30.964 c 0.029,-2.157 -2.706,-4.59 -7.196,-4.436 0.444,-1.362 1.281,-3.847 1.281,-3.847 0,0 10.015,0.919 9.956,9.27 0.088,-0.085 0,23.764 0,23.764 -0.236,3.677 -3.056,5.817 -3.056,5.817 L 0,0 Z" />
        </g>
        <g
           style="fill:#ffdc14;fill-opacity:1"
           transform="translate(548.5186,762.5366)"
           id="g388">
          <path
             inkscape:connector-curvature="0"
             id="path390"
             style="fill:#ffdc14;fill-opacity:1;fill-rule:nonzero;stroke:none"
             d="m 0,0 c 4.404,0.508 5.474,4.812 5.525,5.422 1.564,0 3.639,-0.153 3.639,-0.153 0,0 -0.968,-8.248 -9.558,-9.012 0.049,0 0.663,1.055 0.394,3.743" />
        </g>
        <g
           style="fill:#ffdc14;fill-opacity:1"
           transform="translate(506.5898,760.3403)"
           id="g392">
          <path
             inkscape:connector-curvature="0"
             id="path394"
             style="fill:#ffdc14;fill-opacity:1;fill-rule:nonzero;stroke:none"
             d="M 0,0 C -3.628,1.928 -6.431,5.6 -6.41,8.678 L -2.6,8.709 C -1.666,5.873 -0.223,4.41 1.43,3.649 L 0,0 Z" />
        </g>
        <g
           style="fill:#ffdc14;fill-opacity:1"
           transform="translate(513.7393,762.7573)"
           id="g396">
          <path
             inkscape:connector-curvature="0"
             id="path398"
             style="fill:#ffdc14;fill-opacity:1;fill-rule:nonzero;stroke:none"
             d="m 0,0 c 4.556,0.086 5.204,5.056 5.224,5.177 1.182,7.149 -10.993,12.474 -13.23,14.602 -9.627,9.163 -1.592,19.337 6.658,18.928 7.421,-0.369 11.356,-5.538 11.356,-9.869 l -4.016,0 c -0.179,2.087 -2.807,6.111 -7.684,5.939 -2.15,-0.076 -4.07,-0.913 -5.347,-2.629 -2.715,-3.639 0.727,-8.234 2.518,-9.601 C -2,20.625 2.203,17.849 3.617,16.679 6.557,14.249 8.597,12.014 9.383,7.611 10.203,3.007 7.64,0.051 6.357,-1.43 4.665,-3.386 1.287,-3.833 -1.509,-3.76 L 0,0 Z" />
        </g>
      </g>
    </g>
  </g>
</svg>
